<svg width="52" height="40" viewBox="0 0 52 40" fill="none" xmlns="http://www.w3.org/2000/svg">
<path d="M25.875 0.999995C25.7656 1.01562 25.6602 1.04687 25.5625 1.09375L1.5625 13.0937C1.21094 13.2578 0.984375 13.6133 0.984375 14C0.984375 14.3867 1.21094 14.7422 1.5625 14.9062L5 16.625V31.1875C3.84375 31.6055 3 32.707 3 34C3 34.5781 3.19531 35.0195 3.40625 35.5C3.61719 35.9805 3.86328 36.4531 4.125 36.9062C4.64844 37.8086 5.1875 38.5625 5.1875 38.5625L6 39.75L6.8125 38.5625C6.8125 38.5625 7.35156 37.8086 7.875 36.9062C8.13672 36.4531 8.38281 35.9805 8.59375 35.5C8.80469 35.0195 9 34.5781 9 34C9 32.707 8.15625 31.6055 7 31.1875V17.625L11 19.625V23C11 23.6094 11.4023 23.9961 11.7188 24.2187C12.0352 24.4414 12.375 24.582 12.7812 24.7187C13.5938 24.9922 14.668 25.2187 15.9688 25.4062C18.5742 25.7773 22.0938 26 26 26C29.9062 26 33.4258 25.7773 36.0312 25.4062C37.332 25.2187 38.4062 24.9922 39.2188 24.7187C39.625 24.582 39.9648 24.4414 40.2812 24.2187C40.5977 23.9961 41 23.6094 41 23V19.625L50.4375 14.9062C50.7891 14.7422 51.0156 14.3867 51.0156 14C51.0156 13.6133 50.7891 13.2578 50.4375 13.0937L26.4375 1.09375C26.2617 1.00781 26.0664 0.976558 25.875 0.999995ZM26 3.125L47.75 14L41 17.375V16C41 15.3867 40.5977 15 40.2812 14.7812C39.9648 14.5625 39.625 14.418 39.2188 14.2812C38.4023 14.0078 37.3359 13.7812 36.0312 13.5937C33.4219 13.2227 29.8906 13 26 13C22.1094 13 18.5781 13.2227 15.9688 13.5937C14.6641 13.7812 13.5977 14.0078 12.7812 14.2812C12.375 14.418 12.0352 14.5625 11.7188 14.7812C11.4023 15 11 15.3867 11 16V17.375L4.25 14L26 3.125ZM26 15C29.8125 15 33.2812 15.2109 35.75 15.5625C36.9844 15.7383 37.957 15.9531 38.5625 16.1562C38.7852 16.2305 38.9023 16.293 39 16.3437V21.2187C38.2148 20.9727 37.2305 20.7656 36.0312 20.5937C33.4258 20.2227 29.9062 20 26 20C22.0938 20 18.5742 20.2227 15.9688 20.5937C14.7695 20.7656 13.7852 20.9727 13 21.2187V16.3437C13.0977 16.293 13.2148 16.2305 13.4375 16.1562C14.043 15.9531 15.0156 15.7383 16.25 15.5625C18.7188 15.2109 22.1875 15 26 15ZM26 22C29.8281 22 33.2852 22.2109 35.75 22.5625C36.6562 22.6914 37.2578 22.8477 37.8438 23C37.2578 23.1523 36.6562 23.3086 35.75 23.4375C33.2852 23.7891 29.8281 24 26 24C22.1719 24 18.7148 23.7891 16.25 23.4375C15.3438 23.3086 14.7422 23.1523 14.1562 23C14.7422 22.8477 15.3438 22.6914 16.25 22.5625C18.7148 22.2109 22.1719 22 26 22ZM6 33C6.55469 33 7 33.4453 7 34C7 33.9727 6.94531 34.3164 6.78125 34.6875C6.61719 35.0586 6.36328 35.4961 6.125 35.9062C6.05859 36.0234 6.06641 36.0156 6 36.125C5.93359 36.0156 5.94141 36.0234 5.875 35.9062C5.63672 35.4961 5.38281 35.0586 5.21875 34.6875C5.05469 34.3164 5 33.9727 5 34C5 33.4453 5.44531 33 6 33Z" fill="#3455A5"/>
</svg>
