<svg width="34" height="46" viewBox="0 0 34 46" fill="none" xmlns="http://www.w3.org/2000/svg">
<path d="M0.81263 0C0.336068 0.089844 -0.00768151 0.511719 0.000130493 1V41C0.000130493 41.5508 0.44935 42 1.00013 42H7.00013V40H2.00013V2H32.0001V40H19.0001V42H33.0001C33.5509 42 34.0001 41.5508 34.0001 41V1C34.0001 0.449219 33.5509 0 33.0001 0H1.00013C0.968881 0 0.93763 0 0.90638 0C0.87513 0 0.84388 0 0.81263 0ZM7.00013 12V14H27.0001V12H7.00013ZM7.00013 18V20H27.0001V18H7.00013ZM13.0001 26C12.2267 26 11.59 26.4297 11.1251 27.0312C10.4298 26.8789 9.67982 26.9141 9.06263 27.4062C8.44935 27.8984 8.28919 28.6562 8.31263 29.375C7.66419 29.7305 7.12904 30.2656 7.00013 31.0312C6.87513 31.7891 7.21497 32.4609 7.68763 33C7.40638 33.7109 7.37904 34.5039 7.75013 35.125C7.81654 35.2383 7.91419 35.3125 8.00013 35.4062V44C7.99622 44.3789 8.20716 44.7266 8.54701 44.8984C8.88294 45.0703 9.28919 45.0391 9.59388 44.8125L13.0001 42.25L16.4064 44.8125C16.7111 45.0391 17.1173 45.0703 17.4533 44.8984C17.7931 44.7266 18.004 44.3789 18.0001 44V35.4062C18.0861 35.3125 18.1837 35.2383 18.2501 35.125C18.6837 34.4023 18.59 33.6641 18.3126 33C18.7853 32.4609 19.1251 31.7891 19.0001 31.0312C18.8712 30.2656 18.3361 29.7305 17.6876 29.375C17.7111 28.6562 17.5509 27.8984 16.9376 27.4062C16.3204 26.9141 15.5704 26.8789 14.8751 27.0312C14.422 26.457 13.7853 26 13.0001 26ZM15.0001 27.2188C15.0431 27.25 15.1251 27.3125 15.0939 27.2812L15.0626 27.3125C15.0431 27.2812 15.0197 27.25 15.0001 27.2188ZM13.0001 28C13.3204 28 13.3517 28.0586 13.4376 28.3125C13.4884 28.4648 13.5743 28.6055 13.6876 28.7188C13.7384 28.7695 13.8009 28.8359 14.0626 28.9688C14.3243 29.1016 14.5431 29.0938 14.5939 29.0938C14.7775 29.1016 14.965 29.0586 15.1251 28.9688C15.2736 28.8789 15.5431 28.8516 15.6876 28.9688C15.8556 29.1055 15.8556 29.1523 15.7501 29.4688C15.7111 29.5781 15.6876 29.6953 15.6876 29.8125C15.6876 29.9492 15.7579 29.9688 15.8126 30.0938C15.8478 30.543 16.1798 30.918 16.6251 31C16.7814 31.0273 16.9728 31.2188 17.0001 31.375C17.0275 31.5469 16.9298 31.7539 16.7814 31.8438C16.4923 32.0273 16.3126 32.3438 16.3126 32.6875V33C16.3087 33.2109 16.3751 33.4219 16.5001 33.5938C16.5275 33.6328 16.5704 34.0312 16.5314 34.0938C16.4415 34.2422 16.2345 34.3398 16.0626 34.3125C15.6954 34.2461 15.3204 34.3906 15.0939 34.6875C15.0939 34.6992 15.0939 34.707 15.0939 34.7188C15.0587 34.7461 15.0743 34.7422 15.0314 34.7812C15.0197 34.793 15.0118 34.7695 15.0001 34.7812C14.8009 34.9688 14.6915 35.2266 14.6876 35.5C14.6876 35.7656 14.6876 35.7695 14.4689 35.8438C14.4259 35.8633 14.3829 35.8828 14.3439 35.9062C14.3361 35.9023 14.3634 35.9062 14.3126 35.9062C14.2462 35.9062 14.0509 35.832 13.9064 35.6875C13.715 35.5 13.4533 35.3984 13.1876 35.4062H12.8126C12.547 35.3984 12.2853 35.5 12.0939 35.6875C11.9298 35.8516 11.7501 35.918 11.5314 35.8438C11.4103 35.7773 11.3126 35.6406 11.3126 35.5C11.3126 35.3086 11.2189 35.0508 11.0939 34.875C10.9806 34.7148 10.879 34.6367 10.8126 34.5938C10.5822 34.3633 10.2579 34.2578 9.93763 34.3125C9.76576 34.3398 9.55872 34.2422 9.46888 34.0938C9.35169 33.8945 9.31263 33.8203 9.46888 33.625C9.60951 33.4492 9.68763 33.2266 9.68763 33V32.6875C9.68763 32.3438 9.50794 32.0273 9.21888 31.8438C9.07044 31.7539 8.97279 31.5469 9.00013 31.375C9.02747 31.2188 9.21888 31.0273 9.37513 31C9.82044 30.918 10.1525 30.543 10.1876 30.0938C10.2423 29.9688 10.3126 29.9492 10.3126 29.8125C10.3126 29.6953 10.2892 29.5781 10.2501 29.4688C10.1447 29.1523 10.1447 29.1055 10.3126 28.9688C10.4572 28.8516 10.7267 28.8789 10.8751 28.9688C11.1837 29.1484 11.5665 29.1484 11.8751 28.9688C11.8868 28.9688 11.8947 28.9688 11.9064 28.9688C11.9181 28.957 11.9259 28.9492 11.9376 28.9375C11.9572 28.9297 11.9806 28.918 12.0001 28.9062C12.2618 28.7969 12.4689 28.582 12.5626 28.3125C12.6134 28.1562 12.8439 28 13.0001 28ZM10.0001 37.0625C10.2267 37.3516 10.5001 37.582 10.8439 37.7188C10.8556 37.7305 10.8634 37.7383 10.8751 37.75C11.6329 38.0039 12.3634 37.7812 12.9689 37.4062C12.9767 37.4023 12.9923 37.4102 13.0001 37.4062H13.1876C13.5431 37.6133 13.8595 37.9062 14.3126 37.9062C14.4845 37.9062 14.8283 37.832 15.1251 37.7188C15.1408 37.7031 15.1681 37.6953 15.1876 37.6875C15.2072 37.6797 15.2306 37.6992 15.2501 37.6875V37.6562C15.5587 37.5273 15.8048 37.332 16.0001 37.0938V42L13.5939 40.1875C13.2423 39.9258 12.7579 39.9258 12.4064 40.1875L10.0001 42V37.0625Z" fill="#3455A5"/>
</svg>
