<svg width="36" height="36" viewBox="0 0 36 36" fill="none" xmlns="http://www.w3.org/2000/svg">
<path d="M18 0C8.0625 0 0 8.0625 0 18C0 27.9375 8.0625 36 18 36C27.9375 36 36 27.9375 36 18C36 8.0625 27.9375 0 18 0ZM18 2C26.8594 2 34 9.14062 34 18C34 26.8594 26.8594 34 18 34C9.14062 34 2 26.8594 2 18C2 9.14062 9.14062 2 18 2ZM17 7V9.1875C15.3984 9.38672 12.5 10.7891 12.5 14.1875C12.5 20.5859 21.8125 17.293 21.8125 22.0938C21.8125 23.6953 21.1016 25.1875 18 25.1875C14.8984 25.1875 14 22.8008 14 21.5H12C12.3008 25.8008 15.3008 26.793 17 27.0938V29H19V27.0938C20.5 26.9922 24 25.9062 24 21.9062C24 18.6055 21.2891 17.6953 18.6875 17.0938C16.5859 16.5938 14.6875 16.1016 14.6875 14C14.6875 13.1016 15.0938 11.0938 18.0938 11.0938C20.1953 11.0938 21.1992 12.3984 21.5 14H23.5C22.8984 11.8008 21.8984 9.8125 19 9.3125V7H17Z" fill="#3455A5"/>
</svg>
