<svg width="46" height="48" viewBox="0 0 46 48" fill="none" xmlns="http://www.w3.org/2000/svg">
<path d="M39.9062 0.00451728C39.8633 0.0123303 39.8203 0.0240483 39.7812 0.0357673C39.3164 0.141236 38.9883 0.559205 39 1.03577V7.53577C34.8828 3.53186 29.2227 1.03577 23 1.03577C10.2656 1.03577 0 11.3014 0 24.0358C0 36.7701 10.2656 47.0358 23 47.0358C35.7344 47.0358 46 36.7701 46 24.0358C46 20.2701 45.0664 16.61 43.5 13.4733L41.7188 14.3795C43.1523 17.2428 44 20.6022 44 24.0358C44 35.6998 34.6641 45.0358 23 45.0358C11.3359 45.0358 2 35.6998 2 24.0358C2 12.3717 11.3359 3.03577 23 3.03577C28.7305 3.03577 33.8945 5.34046 37.6562 9.03577H31C30.6406 9.03186 30.3047 9.21936 30.1211 9.53186C29.9414 9.84436 29.9414 10.2272 30.1211 10.5397C30.3047 10.8522 30.6406 11.0397 31 11.0358H41V1.03577C41.0117 0.746705 40.8945 0.469361 40.6875 0.274048C40.4766 0.0748303 40.1914 -0.0228267 39.9062 0.00451728ZM22 8.03577V22.317C21.4023 22.6647 21 23.2975 21 24.0358C21 25.1412 21.8945 26.0358 23 26.0358C23.1719 26.0358 23.3398 26.0162 23.5 25.9733L30.2812 32.7545L31.7188 31.317L24.9375 24.5358C24.9805 24.3756 25 24.2076 25 24.0358C25 23.2975 24.5977 22.6647 24 22.317V8.03577H22Z" fill="#3455A5"/>
</svg>
