<svg width="49" height="46" viewBox="0 0 49 46" fill="none" xmlns="http://www.w3.org/2000/svg">
<path d="M23.9635 0.000781049C23.7536 0.00801943 23.5513 0.0811361 23.3853 0.209765L0.385335 18.157C0.176063 18.3202 0.0401812 18.5598 0.0075822 18.8232C-0.0250168 19.0865 0.0483374 19.3521 0.211508 19.5613C0.374678 19.7706 0.614298 19.9065 0.877655 19.9391C1.14101 19.9717 1.40653 19.8983 1.6158 19.7352L3.00057 18.6551V44.9461C3.0006 45.2113 3.10596 45.4656 3.29349 45.6532C3.48102 45.8407 3.73536 45.9461 4.00057 45.9461H17.8326C17.9406 45.9639 18.0508 45.9639 18.1588 45.9461H29.8326C29.9406 45.9639 30.0508 45.9639 30.1588 45.9461H44.0006C44.2658 45.9461 44.5201 45.8407 44.7076 45.6532C44.8952 45.4656 45.0005 45.2113 45.0006 44.9461V18.6551L46.3853 19.7352C46.489 19.816 46.6075 19.8756 46.7341 19.9106C46.8608 19.9456 46.9931 19.9553 47.1235 19.9391C47.2539 19.923 47.3799 19.8813 47.4942 19.8165C47.6085 19.7517 47.7089 19.665 47.7897 19.5614C47.8705 19.4577 47.9301 19.3392 47.9651 19.2126C48.0001 19.0859 48.0098 18.9536 47.9936 18.8232C47.9775 18.6928 47.9358 18.5668 47.871 18.4525C47.8061 18.3382 47.7194 18.2378 47.6158 18.157L40.0006 12.2156C40.0005 12.0076 40.0006 11.7667 40.0006 11.4539C40.0004 10.7224 40.0006 9.75584 40.0006 8.7918C40.0004 6.86371 40.0006 4.94609 40.0006 4.94609C40.0005 4.68089 39.8952 4.42655 39.7076 4.23902C39.5201 4.05149 39.2658 3.94612 39.0006 3.94609H35.0006C34.7354 3.94612 34.481 4.05149 34.2935 4.23902C34.106 4.42655 34.0006 4.68089 34.0006 4.94609C34.0006 4.94609 34.0012 6.10316 34.0006 7.26055C34.0005 7.35995 34.0006 7.43531 34.0006 7.53398L24.6158 0.209765C24.4297 0.0654856 24.1987 -0.00851955 23.9635 0.000781049ZM24.0006 2.26836L34.3795 10.366C34.5175 10.474 34.6814 10.5438 34.8548 10.5684C35.0283 10.5931 35.2051 10.5718 35.3678 10.5066C35.3678 10.5066 35.9869 9.70796 35.9869 9.70781C35.9869 9.70766 35.992 9.65448 35.9928 9.64336C35.9943 9.6211 35.9944 9.61493 35.9947 9.6082C35.9952 9.59475 35.9965 9.58811 35.9967 9.58086C35.9969 9.56636 35.9965 9.55242 35.9967 9.53398C35.997 9.4971 35.9964 9.44575 35.9967 9.38164C35.9971 9.25341 35.9982 9.07183 35.9986 8.8543C35.9991 8.41923 36.0003 7.84155 36.0006 7.2625C36.0009 6.60435 36.0005 6.39157 36.0006 5.94609H38.0006C38.0006 6.58839 38.0005 7.36501 38.0006 8.7918C38.0006 9.75588 38.0004 10.7222 38.0006 11.4539C38.0006 11.8197 38.0005 12.126 38.0006 12.3445C38.0007 12.563 38.0015 12.6271 38.0025 12.7156C38.0042 12.8658 38.0396 13.0136 38.1063 13.1482C38.1729 13.2827 38.2689 13.4006 38.3873 13.493L43.0006 17.0926V43.9461H31.0006V24.9461H17.0006V43.9461H5.00057V17.0945L24.0006 2.26836ZM19.0006 26.9461H29.0006V43.9461H19.0006V26.9461ZM26.0006 33.9461C25.7354 33.9461 25.481 34.0514 25.2935 34.239C25.1059 34.4265 25.0006 34.6809 25.0006 34.9461C25.0006 35.2113 25.1059 35.4657 25.2935 35.6532C25.481 35.8407 25.7354 35.9461 26.0006 35.9461C26.2658 35.9461 26.5201 35.8407 26.7077 35.6532C26.8952 35.4657 27.0006 35.2113 27.0006 34.9461C27.0006 34.6809 26.8952 34.4265 26.7077 34.239C26.5201 34.0514 26.2658 33.9461 26.0006 33.9461Z" fill="#3455A5"/>
</svg>
