<svg width="50" height="38" viewBox="0 0 50 38" fill="none" xmlns="http://www.w3.org/2000/svg">
<path d="M7 0C5.35547 0 4 1.35547 4 3V25C4 25.75 4.28515 26.4414 4.75 26.9688L0.406249 32.7812C0.124999 33.1602 -1.27242e-06 33.6094 -1.27242e-06 34C-1.27242e-06 34.0078 -1.27242e-06 34.0234 -1.27242e-06 34.0312V35C-0.0156263 36.6445 1.35547 38 3 38H47C48.6445 38 50.0156 36.6445 50 35V34.0312C50 34.0234 50 34.0078 50 34C50 33.6094 49.8789 33.1602 49.5938 32.7812L45.25 26.9688C45.7148 26.4414 46 25.75 46 25V3C46 1.35547 44.6445 0 43 0H7ZM7 2H43C43.5664 2 44 2.43359 44 3V25C44 25.5664 43.5664 26 43 26H7C6.43359 26 6 25.5664 6 25V3C6 2.43359 6.43359 2 7 2ZM24 4V24H26V4H24ZM9.71875 5C9.16797 5.07812 8.78125 5.58984 8.85937 6.14062C8.9375 6.69141 9.44922 7.07812 10 7H20C20.3594 7.00391 20.6953 6.81641 20.8789 6.50391C21.0586 6.19141 21.0586 5.80859 20.8789 5.49609C20.6953 5.18359 20.3594 4.99609 20 5H10C9.96875 5 9.9375 5 9.90625 5C9.875 5 9.84375 5 9.8125 5C9.78125 5 9.75 5 9.71875 5ZM29.7187 5C29.168 5.07812 28.7812 5.58984 28.8594 6.14062C28.9375 6.69141 29.4492 7.07812 30 7H40C40.3594 7.00391 40.6953 6.81641 40.8789 6.50391C41.0586 6.19141 41.0586 5.80859 40.8789 5.49609C40.6953 5.18359 40.3594 4.99609 40 5H30C29.9687 5 29.9375 5 29.9062 5C29.875 5 29.8437 5 29.8125 5C29.7812 5 29.75 5 29.7187 5ZM9.71875 9C9.16797 9.07812 8.78125 9.58984 8.85937 10.1406C8.9375 10.6914 9.44922 11.0781 10 11H17C17.3594 11.0039 17.6953 10.8164 17.8789 10.5039C18.0586 10.1914 18.0586 9.80859 17.8789 9.49609C17.6953 9.18359 17.3594 8.99609 17 9H10C9.96875 9 9.9375 9 9.90625 9C9.875 9 9.84375 9 9.8125 9C9.78125 9 9.75 9 9.71875 9ZM29.7187 9C29.168 9.07812 28.7812 9.58984 28.8594 10.1406C28.9375 10.6914 29.4492 11.0781 30 11H37C37.3594 11.0039 37.6953 10.8164 37.8789 10.5039C38.0586 10.1914 38.0586 9.80859 37.8789 9.49609C37.6953 9.18359 37.3594 8.99609 37 9H30C29.9687 9 29.9375 9 29.9062 9C29.875 9 29.8437 9 29.8125 9C29.7812 9 29.75 9 29.7187 9ZM9.71875 13C9.16797 13.0781 8.78125 13.5898 8.85937 14.1406C8.9375 14.6914 9.44922 15.0781 10 15H20C20.3594 15.0039 20.6953 14.8164 20.8789 14.5039C21.0586 14.1914 21.0586 13.8086 20.8789 13.4961C20.6953 13.1836 20.3594 12.9961 20 13H10C9.96875 13 9.9375 13 9.90625 13C9.875 13 9.84375 13 9.8125 13C9.78125 13 9.75 13 9.71875 13ZM29.7187 13C29.168 13.0781 28.7812 13.5898 28.8594 14.1406C28.9375 14.6914 29.4492 15.0781 30 15H40C40.3594 15.0039 40.6953 14.8164 40.8789 14.5039C41.0586 14.1914 41.0586 13.8086 40.8789 13.4961C40.6953 13.1836 40.3594 12.9961 40 13H30C29.9687 13 29.9375 13 29.9062 13C29.875 13 29.8437 13 29.8125 13C29.7812 13 29.75 13 29.7187 13ZM9.71875 17C9.16797 17.0781 8.78125 17.5898 8.85937 18.1406C8.9375 18.6914 9.44922 19.0781 10 19H17C17.3594 19.0039 17.6953 18.8164 17.8789 18.5039C18.0586 18.1914 18.0586 17.8086 17.8789 17.4961C17.6953 17.1836 17.3594 16.9961 17 17H10C9.96875 17 9.9375 17 9.90625 17C9.875 17 9.84375 17 9.8125 17C9.78125 17 9.75 17 9.71875 17ZM29.7187 17C29.168 17.0781 28.7812 17.5898 28.8594 18.1406C28.9375 18.6914 29.4492 19.0781 30 19H37C37.3594 19.0039 37.6953 18.8164 37.8789 18.5039C38.0586 18.1914 38.0586 17.8086 37.8789 17.4961C37.6953 17.1836 37.3594 16.9961 37 17H30C29.9687 17 29.9375 17 29.9062 17C29.875 17 29.8437 17 29.8125 17C29.7812 17 29.75 17 29.7187 17ZM9.71875 21C9.16797 21.0781 8.78125 21.5898 8.85937 22.1406C8.9375 22.6914 9.44922 23.0781 10 23H20C20.3594 23.0039 20.6953 22.8164 20.8789 22.5039C21.0586 22.1914 21.0586 21.8086 20.8789 21.4961C20.6953 21.1836 20.3594 20.9961 20 21H10C9.96875 21 9.9375 21 9.90625 21C9.875 21 9.84375 21 9.8125 21C9.78125 21 9.75 21 9.71875 21ZM29.7187 21C29.168 21.0781 28.7812 21.5898 28.8594 22.1406C28.9375 22.6914 29.4492 23.0781 30 23H40C40.3594 23.0039 40.6953 22.8164 40.8789 22.5039C41.0586 22.1914 41.0586 21.8086 40.8789 21.4961C40.6953 21.1836 40.3594 20.9961 40 21H30C29.9687 21 29.9375 21 29.9062 21C29.875 21 29.8437 21 29.8125 21C29.7812 21 29.75 21 29.7187 21ZM6.75 28H43.5C43.5078 28 43.5273 27.9922 43.5312 28L48 33.9688V35C48.0039 35.5586 47.5586 36 47 36H3C2.4414 36 1.99609 35.5586 2 35V33.9688L6.3125 28.2188C6.45703 28.1445 6.60156 28.0742 6.75 28ZM19.5 31C19.1602 31 18.8398 31.1836 18.6562 31.4688L17 34H33L31.3437 31.4688C31.1602 31.1836 30.8398 31 30.5 31H19.5Z" fill="#3455A5"/>
</svg>
