<svg width="46" height="44" viewBox="0 0 46 44" fill="none" xmlns="http://www.w3.org/2000/svg">
<path d="M23 0C10.3281 0 0 8.87891 0 19.9961C0 26.4453 3.53125 32.0625 8.96094 35.7305C8.95312 35.9453 8.96875 36.2969 8.6875 37.3438C8.33594 38.6445 7.625 40.4727 6.1875 42.5352L5.16406 44H6.95312C13.1406 44 16.7227 39.9648 17.2773 39.3164C19.1211 39.75 21.0156 39.9844 23 39.9844C35.668 39.9844 46 31.1055 46 19.9922C46 8.87891 35.6719 0 23 0ZM23 2C34.5781 2 44 10.0703 44 19.9961C44 29.918 34.5781 37.9883 23 37.9883C21.2305 37.9883 19.5078 37.7852 17.7344 37.3711L16.5469 37.0938L15.7578 38.0156C15.0742 38.8164 12.7734 41.168 8.98438 41.8281C9.71094 40.5234 10.2578 39.1953 10.6133 37.8633C10.8945 36.832 10.9453 36.2891 10.957 35.8125L11.0039 34.6992L10.0781 34.0742C4.94531 30.6016 2 25.4688 2 19.9961C2 10.0703 11.4219 2 23 2ZM22.9258 9C22.5117 9 22.1406 9.25391 21.9883 9.64062L19.7188 15.5352L13.4062 15.875C12.9922 15.8984 12.6367 16.1758 12.5078 16.5664C12.3828 16.957 12.5078 17.3906 12.8281 17.6523L17.7344 21.6367L16.1094 27.7422C16 28.1406 16.1523 28.5664 16.4844 28.8086C16.8203 29.0508 17.2695 29.0664 17.6172 28.8398L22.9219 25.4062L28.2305 28.8398C28.5742 29.0664 29.0273 29.0508 29.3594 28.8086C29.6953 28.5664 29.8438 28.1406 29.7383 27.7422L28.1094 21.6367L33.0156 17.6523C33.3359 17.3906 33.4648 16.957 33.3359 16.5664C33.2109 16.1758 32.8516 15.8984 32.4414 15.875L26.1289 15.5352L23.8555 9.64062C23.707 9.25391 23.3398 9 22.9258 9ZM22.9219 12.7812L24.4961 16.8594C24.6367 17.2266 24.9805 17.4766 25.375 17.5L29.7461 17.7344L26.3477 20.4922C26.043 20.7422 25.9102 21.1445 26.0117 21.5273L27.1406 25.75L23.4688 23.375C23.1367 23.1602 22.7109 23.1602 22.3789 23.375L18.707 25.75L19.832 21.5273C19.9336 21.1445 19.8047 20.7422 19.5 20.4922L16.1016 17.7344L20.4688 17.5C20.8633 17.4766 21.207 17.2266 21.3477 16.8594L22.9219 12.7812Z" fill="#3455A5"/>
</svg>
