<svg width="46" height="46" viewBox="0 0 46 46" fill="none" xmlns="http://www.w3.org/2000/svg">
<path d="M23 0C10.3093 0 0 10.3093 0 23C0 35.6907 10.3093 46 23 46C35.6907 46 46 35.6907 46 23C46 10.3093 35.6907 0 23 0ZM23 2C34.6098 2 44 11.3902 44 23C44 34.6098 34.6098 44 23 44C11.3902 44 2 34.6098 2 23C2 11.3902 11.3902 2 23 2ZM22 8V10.8008C16.4 11.1008 15.4492 15.2992 15.4492 17.1992C15.4492 26.5992 29.1504 21.5992 29.1504 28.6992C29.1504 29.5992 28.9508 33.5996 23.0508 33.5996C22.8508 33.5996 16.7492 33.6008 16.9492 27.3008H14.8496C15.0496 34.0008 19.3 34.8992 22 35.1992V38H24V35.1992C30.7 34.6992 31.1504 29.6992 31.1504 28.6992C31.1504 19.6992 17.4492 24.3004 17.4492 17.4004C17.4492 15.1004 18.3508 12.4004 23.0508 12.4004C27.8508 12.4004 28.4508 16.2004 28.5508 17.9004H30.6504C30.8504 15.1004 28.8508 11.0008 24.0508 10.8008V8H22Z" fill="#3455A5"/>
</svg>
