<svg width="28" height="50" viewBox="0 0 28 50" fill="none" xmlns="http://www.w3.org/2000/svg">
<path d="M14 1.55979e-06C10.5 1.55979e-06 7.19531 1.29297 4.59375 3.59375C1.69531 6.19531 0 10 0 14C0 15.1016 0.898438 16 2 16H4C5.10156 16 6 15.1016 6 14C6 11.6992 6.98828 9.60156 8.6875 8C10.1875 6.69922 12 6 14 6C14.3008 6 14.6055 5.99219 14.9062 6.09375C18.6055 6.49219 21.5078 9.49219 21.9062 13.0938C22.3047 16.3945 20.5859 19.4922 17.6875 21.0938C13.4883 23.293 10.9062 27.4922 10.9062 32.0938V38C10.9062 39.1016 11.8047 40 12.9062 40H14.9062C16.0078 40 16.9062 39.1016 16.9062 38V32.0938C16.9062 29.793 18.3008 27.6055 20.5 26.4063C25.6016 23.707 28.5117 18.1992 27.8125 12.5C27.2109 6 21.9922 0.792971 15.5938 0.0937516C15.0938 -0.00781094 14.5 1.55979e-06 14 1.55979e-06ZM14 2C14.3984 2 14.9141 1.99219 15.3125 2.09375C20.8125 2.69531 25.3047 7.1875 25.9062 12.6875C26.4062 17.5859 23.9922 22.2891 19.5938 24.6875C16.793 26.0859 15 28.9922 15 32.0938V38H13V32.0938C13 28.293 15.1875 24.707 18.6875 22.9063C22.2891 21.0078 24.4062 17.0078 23.9062 12.9063C23.4062 8.30469 19.6953 4.59375 15.0938 4.09375C14.793 3.99219 14.3984 4 14 4C11.5 4 9.21094 4.89844 7.3125 6.5C5.21094 8.39844 4 11.1992 4 14H2C2 10.6016 3.5 7.29297 6 5.09375C8.19922 3.09375 11.1016 2 14 2ZM11.8125 44C11.3359 44.0898 10.9922 44.5117 11 45V49C11 49.5508 11.4492 50 12 50H16C16.5508 50 17 49.5508 17 49V45C17 44.4492 16.5508 44 16 44H12C11.9688 44 11.9375 44 11.9062 44C11.875 44 11.8438 44 11.8125 44ZM13 46H15V48H13V46Z" fill="#3455A5"/>
</svg>
