<svg width="46" height="46" viewBox="0 0 46 46" fill="none" xmlns="http://www.w3.org/2000/svg">
<path d="M23 0C10.3093 0 0 10.3093 0 23C0 35.6907 10.3093 46 23 46C35.6907 46 46 35.6907 46 23C46 10.3093 35.6907 0 23 0ZM23 2C34.6098 2 44 11.3902 44 23C44 34.6098 34.6098 44 23 44C11.3902 44 2 34.6098 2 23C2 11.3902 11.3902 2 23 2ZM23.2891 10.5078C19.5591 10.5078 17.0859 12.7679 16.5469 16.2109C16.5119 16.4269 16.618 16.5695 16.834 16.6055L19.0938 17.002C19.3097 17.038 19.4523 16.9298 19.4883 16.7148C19.9183 14.5268 21.2088 13.3066 23.2168 13.3066C25.2618 13.3066 26.6953 14.5986 26.6953 16.6426C26.6953 17.8626 26.2657 18.6872 25.0117 20.4082L22.6074 23.707C21.8544 24.748 21.5332 25.5015 21.5332 26.9375V28.4062C21.5332 28.6213 21.6756 28.7657 21.8906 28.7617H24.2578C24.4728 28.7617 24.6152 28.6193 24.6152 28.4043V27.2578C24.6152 26.0388 24.8318 25.5364 25.5488 24.5684L27.9512 21.2676C29.1712 19.5816 29.7793 18.3275 29.7793 16.6055C29.7793 13.0545 27.1611 10.5078 23.2891 10.5078ZM21.7129 31.4922C21.4969 31.4922 21.3535 31.6366 21.3535 31.8516V34.9355C21.3535 35.1505 21.4959 35.293 21.7129 35.293H24.4395C24.6535 35.293 24.7969 35.1515 24.7969 34.9355V31.8516C24.7969 31.6376 24.6545 31.4922 24.4395 31.4922H21.7129Z" fill="#3455A5"/>
</svg>
