<svg width="46" height="48" viewBox="0 0 46 48" fill="none" xmlns="http://www.w3.org/2000/svg">
<path d="M10 0C8.90625 0 8 0.90625 8 2V4H2C1.59375 4 1.14844 4.0625 0.722656 4.35938C0.296875 4.65625 0 5.24609 0 5.79297V46.043C0 46.543 0.171875 47.0547 0.53125 47.4258C0.886719 47.8008 1.41016 48 1.91797 48H44.082C44.5898 48 45.1133 47.8008 45.4688 47.4258C45.8281 47.0547 46 46.543 46 46.043V5.79297C46 5.24609 45.7031 4.65625 45.2773 4.35938C44.8516 4.0625 44.4062 4 44 4H38V2C38 0.90625 37.0938 0 36 0H34C32.9062 0 32 0.90625 32 2V4H14V2C14 0.90625 13.0938 0 12 0H10ZM10 2H12V8H10V2ZM34 2H36V8H34V2ZM2 6H8V8C8 9.09375 8.90625 10 10 10H12C13.0938 10 14 9.09375 14 8V6H32V8C32 9.09375 32.9062 10 34 10H36C37.0938 10 38 9.09375 38 8V6H44V13H2V6ZM2 15H44V46H2V15ZM23.1328 23.1719C22.2812 23.1719 21.5664 23.3711 20.9883 23.7656C20.4102 24.1641 19.9414 24.6758 19.5859 25.3086C19.2305 25.9375 18.9727 26.6367 18.8203 27.4062C18.6641 28.1719 18.5898 28.9336 18.5898 29.6875C18.5898 30.6133 18.6484 31.4766 18.7773 32.2734C18.9023 33.0703 19.1289 33.7656 19.457 34.3594C19.7852 34.957 20.2344 35.4219 20.8008 35.7656C21.3711 36.1094 22.0938 36.2773 22.9805 36.2773C23.5781 36.2773 24.1211 36.168 24.6133 35.9531C25.1055 35.7383 25.5352 35.4336 25.8906 35.0469C26.2422 34.6562 26.5156 34.1992 26.7031 33.6758C26.8945 33.1562 26.9883 32.5898 26.9883 31.9766C26.9883 31.375 26.9023 30.8203 26.7305 30.3008C26.5586 29.7852 26.3086 29.3398 25.9844 28.9609C25.6562 28.582 25.2578 28.2852 24.7852 28.0703C24.3125 27.8555 23.7812 27.7461 23.1836 27.7461C22.6445 27.7461 22.1445 27.8711 21.6758 28.1133C21.2109 28.3594 20.8477 28.7344 20.582 29.2383L20.5508 29.2031C20.5742 28.9258 20.5977 28.6289 20.625 28.3125C20.6562 27.9961 20.7031 27.6719 20.7734 27.3477C20.8438 27.0273 20.9297 26.7188 21.0391 26.4219C21.1484 26.1289 21.293 25.8711 21.4688 25.6406C21.6484 25.4141 21.8672 25.2305 22.125 25.0938C22.3828 24.9531 22.6914 24.8867 23.0469 24.8867C23.5625 24.8867 23.9727 25.043 24.2773 25.3594C24.582 25.6797 24.7539 26.0938 24.8008 26.6094H26.7656C26.7422 26.0938 26.6289 25.6289 26.4219 25.207C26.2148 24.7852 25.9492 24.4297 25.6211 24.1289C25.293 23.8281 24.918 23.5938 24.4922 23.4258C24.0664 23.2578 23.6133 23.1719 23.1328 23.1719ZM22.9062 29.3633C23.2617 29.3633 23.5742 29.4375 23.8398 29.582C24.1016 29.7266 24.3203 29.9141 24.5 30.1484C24.6797 30.3828 24.8086 30.6562 24.8945 30.9688C24.9844 31.2812 25.0273 31.6016 25.0273 31.9375C25.0273 32.2773 24.9844 32.6055 24.8945 32.9219C24.8086 33.2383 24.6797 33.5195 24.5 33.7578C24.3203 33.9961 24.1016 34.1953 23.8398 34.3438C23.5742 34.4922 23.2617 34.5664 22.9062 34.5664C22.5508 34.5664 22.2383 34.4961 21.9688 34.3516C21.6992 34.207 21.4727 34.0117 21.2891 33.7656C21.1055 33.5234 20.9688 33.2422 20.875 32.9297C20.7852 32.6172 20.7383 32.2891 20.7383 31.9375C20.7383 31.5898 20.7852 31.2617 20.875 30.9492C20.9688 30.6367 21.1055 30.3633 21.2891 30.1289C21.4727 29.8984 21.6992 29.7109 21.9688 29.5742C22.2383 29.4336 22.5508 29.3633 22.9062 29.3633Z" fill="#3455A5"/>
</svg>
