<svg width="50" height="46" viewBox="0 0 50 46" fill="none" xmlns="http://www.w3.org/2000/svg">
<path d="M17.0001 0C13.6993 0 11.0001 2.69922 11.0001 6C11.0001 7.98438 11.9766 9.75 13.4688 10.8438C12.668 11.2461 11.9376 11.7656 11.3126 12.4062C10.586 12.1484 9.81257 12 9.00007 12C5.1446 12 2.00007 15.1445 2.00007 19C2.00007 21.4492 3.2696 23.625 5.18757 24.875C2.13289 26.3203 7.33414e-05 29.4141 7.33414e-05 33V37.5C-0.00383291 37.8203 0.148511 38.1211 0.406323 38.3125C0.406323 38.3125 1.11335 38.8125 2.46882 39.2188C3.82429 39.625 5.91804 40 9.00007 40C12.0821 40 14.1759 39.625 15.5313 39.2188C15.7071 39.168 15.8477 39.1172 16.0001 39.0625V43.5C15.9962 43.8203 16.1485 44.1211 16.4063 44.3125C16.4063 44.3125 17.1134 44.8125 18.4688 45.2188C19.8243 45.625 21.918 46 25.0001 46C28.0821 46 30.1759 45.625 31.5313 45.2188C32.8868 44.8125 33.5938 44.3125 33.5938 44.3125C33.8516 44.1211 34.004 43.8203 34.0001 43.5V39.0625C34.1524 39.1172 34.293 39.168 34.4688 39.2188C35.8243 39.625 37.918 40 41.0001 40C44.0821 40 46.1759 39.625 47.5313 39.2188C48.8868 38.8125 49.5938 38.3125 49.5938 38.3125C49.8516 38.1211 50.004 37.8203 50.0001 37.5V33C50.0001 29.4141 47.8673 26.3203 44.8126 24.875C46.7305 23.625 48.0001 21.4492 48.0001 19C48.0001 15.1445 44.8555 12 41.0001 12C40.129 12 39.3009 12.1758 38.5313 12.4688C37.9024 11.8086 37.1602 11.2578 36.3438 10.8438C37.836 9.75 38.8126 7.98438 38.8126 6C38.8126 2.69922 36.1134 0 32.8126 0C29.5118 0 26.8126 2.69922 26.8126 6C26.8126 7.98438 27.7891 9.75 29.2813 10.8438C26.9844 11.9766 25.3048 14.1562 24.9063 16.7812C24.5079 14.1523 22.8321 11.9727 20.5313 10.8438C22.0235 9.75 23.0001 7.98438 23.0001 6C23.0001 2.69922 20.3009 0 17.0001 0ZM17.0001 2C19.2227 2 21.0001 3.77734 21.0001 6C21.0001 8.22266 19.2227 10 17.0001 10C14.7774 10 13.0001 8.22266 13.0001 6C13.0001 3.77734 14.7774 2 17.0001 2ZM32.8126 2C35.0352 2 36.8126 3.77734 36.8126 6C36.8126 8.22266 35.0352 10 32.8126 10C30.5899 10 28.8126 8.22266 28.8126 6C28.8126 3.77734 30.5899 2 32.8126 2ZM17.0001 12C20.3712 12 23.0001 14.6289 23.0001 18V18.3125C20.1251 19.1836 18.0001 21.8477 18.0001 25C18.0001 27.4492 19.2696 29.625 21.1876 30.875C19.9337 31.4688 18.8594 32.3398 18.0001 33.4062V33C18.0001 29.4141 15.8673 26.3203 12.8126 24.875C14.7305 23.625 16.0001 21.4492 16.0001 19C16.0001 16.7188 14.8868 14.6875 13.1876 13.4062C14.2266 12.5195 15.5157 12 17.0001 12ZM32.8126 12C34.3399 12 35.668 12.5352 36.7188 13.4688C35.0704 14.75 34.0001 16.7617 34.0001 19C34.0001 21.4492 35.2696 23.625 37.1876 24.875C34.1329 26.3203 32.0001 29.4141 32.0001 33V33.4062C31.1407 32.3398 30.0665 31.4688 28.8126 30.875C30.7305 29.625 32.0001 27.4492 32.0001 25C32.0001 21.7773 29.7891 19.0547 26.8126 18.25V18C26.8126 14.6289 29.4415 12 32.8126 12ZM9.00007 14C9.77742 14 10.5001 14.1875 11.1563 14.5C12.836 15.3047 14.0001 17.0039 14.0001 19C14.0001 21.7734 11.7735 24 9.00007 24C6.22664 24 4.00007 21.7734 4.00007 19C4.00007 16.2266 6.22664 14 9.00007 14ZM41.0001 14C43.7735 14 46.0001 16.2266 46.0001 19C46.0001 21.7734 43.7735 24 41.0001 24C38.2266 24 36.0001 21.7734 36.0001 19C36.0001 17.1523 36.9884 15.5547 38.4688 14.6875C38.4766 14.6836 38.4923 14.6914 38.5001 14.6875C38.6485 14.6562 38.7852 14.5938 38.9063 14.5C38.9415 14.4844 38.9649 14.4531 39.0001 14.4375C39.0196 14.4297 39.043 14.418 39.0626 14.4062C39.6602 14.1523 40.3087 14 41.0001 14ZM25.0001 20C27.7735 20 30.0001 22.2266 30.0001 25C30.0001 27.7734 27.7735 30 25.0001 30C22.2266 30 20.0001 27.7734 20.0001 25C20.0001 22.2266 22.2266 20 25.0001 20ZM9.00007 26C12.8555 26 16.0001 29.1445 16.0001 33V36.8438C15.8516 36.9336 15.793 37.0352 14.9688 37.2812C13.8243 37.625 11.918 38 9.00007 38C6.0821 38 4.17585 37.625 3.03132 37.2812C2.2071 37.0352 2.14851 36.9336 2.00007 36.8438V33C2.00007 29.1445 5.1446 26 9.00007 26ZM41.0001 26C44.8555 26 48.0001 29.1445 48.0001 33V36.8438C47.8516 36.9336 47.793 37.0352 46.9688 37.2812C45.8243 37.625 43.918 38 41.0001 38C38.0821 38 36.1759 37.625 35.0313 37.2812C34.2071 37.0352 34.1485 36.9336 34.0001 36.8438V33C34.0001 29.1445 37.1446 26 41.0001 26ZM25.0001 32C28.8555 32 32.0001 35.1445 32.0001 39V42.8438C31.8516 42.9336 31.793 43.0352 30.9688 43.2812C29.8243 43.625 27.918 44 25.0001 44C22.0821 44 20.1759 43.625 19.0313 43.2812C18.2071 43.0352 18.1485 42.9336 18.0001 42.8438V39C18.0001 35.1445 21.1446 32 25.0001 32Z" fill="#3455A5"/>
</svg>
