<svg width="46" height="48" viewBox="0 0 46 48" fill="none" xmlns="http://www.w3.org/2000/svg">
<path d="M10 0C8.90625 0 8 0.90625 8 2V4H2C1.59375 4 1.14844 4.0625 0.722656 4.35938C0.296875 4.65625 0 5.24609 0 5.79297V46.043C0 46.543 0.171875 47.0547 0.53125 47.4258C0.886719 47.8008 1.41016 48 1.91797 48H44.082C44.5898 48 45.1133 47.8008 45.4688 47.4258C45.8281 47.0547 46 46.543 46 46.043V5.79297C46 5.24609 45.7031 4.65625 45.2773 4.35938C44.8516 4.0625 44.4062 4 44 4H38V2C38 0.90625 37.0938 0 36 0H34C32.9062 0 32 0.90625 32 2V4H14V2C14 0.90625 13.0938 0 12 0H10ZM10 2H12V8H10V2ZM34 2H36V8H34V2ZM2 6H8V8C8 9.09375 8.90625 10 10 10H12C13.0938 10 14 9.09375 14 8V6H32V8C32 9.09375 32.9062 10 34 10H36C37.0938 10 38 9.09375 38 8V6H44V13H2V6ZM2 15H44V46H2V15ZM22.75 23.1719C22.1445 23.1719 21.5977 23.2812 21.1133 23.5C20.6328 23.7148 20.2227 24.0156 19.8867 24.3984C19.5469 24.7812 19.2773 25.2344 19.082 25.7578C18.8867 26.2812 18.7773 26.8438 18.7539 27.457H20.7188C20.707 27.1328 20.7422 26.8203 20.8242 26.5156C20.9023 26.207 21.0273 25.9297 21.1914 25.6875C21.3594 25.4414 21.5664 25.2422 21.8203 25.0977C22.0742 24.957 22.3711 24.8867 22.7188 24.8867C23.2695 24.8867 23.7188 25.0469 24.0664 25.3711C24.418 25.6914 24.5938 26.125 24.5938 26.668C24.5938 27.0508 24.5156 27.375 24.3594 27.6406C24.207 27.9023 24.0039 28.1094 23.75 28.2617C23.5 28.4102 23.2109 28.5156 22.8906 28.5742C22.5703 28.6328 22.2461 28.6602 21.9258 28.6445V30.1758C22.3164 30.1641 22.6992 30.1758 23.0703 30.2148C23.4414 30.25 23.7812 30.3398 24.0781 30.4883C24.375 30.6406 24.6172 30.8594 24.8008 31.1484C24.9844 31.4375 25.0781 31.8281 25.0781 32.3164C25.0781 33.0391 24.8516 33.5938 24.4102 33.9844C23.9688 34.3711 23.4219 34.5664 22.7656 34.5664C22 34.5664 21.4219 34.3125 21.0352 33.8008C20.6523 33.293 20.4727 32.6562 20.4961 31.8867H18.5312C18.543 32.5469 18.6406 33.1445 18.8281 33.6875C19.0078 34.2266 19.2773 34.6875 19.625 35.0742C19.9766 35.457 20.4141 35.7539 20.9375 35.9648C21.457 36.1719 22.0664 36.2773 22.7656 36.2773C23.3398 36.2773 23.8867 36.1875 24.4062 36.0078C24.9219 35.8281 25.3711 35.5742 25.7656 35.2422C26.1523 34.9141 26.4648 34.5117 26.6914 34.0352C26.9219 33.5625 27.0352 33.0273 27.0352 32.4258C27.0352 31.6094 26.8438 30.918 26.4609 30.3477C26.0742 29.7773 25.5391 29.418 24.8516 29.2773V29.2383C25.4375 29.0234 25.8672 28.6797 26.1406 28.2031C26.418 27.7305 26.5586 27.1758 26.5586 26.5391C26.5586 25.9883 26.4453 25.5 26.2305 25.0742C26.0078 24.6445 25.7227 24.2969 25.3594 24.0195C25 23.7422 24.5898 23.5352 24.1367 23.3906C23.6836 23.2461 23.2227 23.1719 22.75 23.1719Z" fill="#3455A5"/>
</svg>
