<svg width="46" height="48" viewBox="0 0 46 48" fill="none" xmlns="http://www.w3.org/2000/svg">
<path d="M10 0C8.90625 0 8 0.90625 8 2V4H2C1.59375 4 1.14844 4.0625 0.722656 4.35938C0.296875 4.65625 0 5.24609 0 5.79297V46.043C0 46.543 0.171875 47.0547 0.53125 47.4258C0.886719 47.8008 1.41016 48 1.91797 48H44.082C44.5898 48 45.1133 47.8008 45.4688 47.4258C45.8281 47.0547 46 46.543 46 46.043V5.79297C46 5.24609 45.7031 4.65625 45.2773 4.35938C44.8516 4.0625 44.4062 4 44 4H38V2C38 0.90625 37.0938 0 36 0H34C32.9062 0 32 0.90625 32 2V4H14V2C14 0.90625 13.0938 0 12 0H10ZM10 2H12V8H10V2ZM34 2H36V8H34V2ZM2 6H8V8C8 9.09375 8.90625 10 10 10H12C13.0938 10 14 9.09375 14 8V6H32V8C32 9.09375 32.9062 10 34 10H36C37.0938 10 38 9.09375 38 8V6H44V13H2V6ZM2 15H44V46H2V15ZM27.6211 23.1719C26.9414 23.1719 26.3477 23.2969 25.8398 23.543C25.3281 23.7891 24.8906 24.1289 24.5352 24.5625C24.1797 24.9922 23.9141 25.5039 23.7344 26.0977C23.5586 26.6953 23.4688 27.3359 23.4688 28.0312H25.4336C25.4414 27.5898 25.4844 27.1758 25.5625 26.793C25.6328 26.4102 25.75 26.0742 25.9062 25.793C26.0586 25.5117 26.2656 25.2891 26.5234 25.125C26.7812 24.9648 27.1055 24.8867 27.4961 24.8867C27.9219 24.8867 28.2656 24.9609 28.5312 25.1094C28.793 25.2578 29 25.4453 29.1523 25.668C29.3008 25.8906 29.3984 26.1289 29.4531 26.3867C29.5039 26.6445 29.5312 26.8867 29.5312 27.1133C29.5156 27.6055 29.3984 28.043 29.168 28.4219C28.9375 28.8008 28.6445 29.1523 28.2891 29.4727C27.9336 29.7969 27.543 30.1016 27.1172 30.3828C26.6914 30.6641 26.2852 30.957 25.8945 31.2539C25.0781 31.832 24.4375 32.5078 23.9688 33.2891C23.4961 34.0703 23.2539 34.9805 23.2461 36.0273H31.4727V34.1875H25.6055C25.6836 33.9141 25.832 33.6523 26.0508 33.4062C26.2695 33.1602 26.5234 32.9219 26.8164 32.6953C27.1094 32.4688 27.4297 32.2383 27.7734 32.0117C28.1172 31.7852 28.4609 31.5469 28.8086 31.293C29.1523 31.0391 29.4844 30.7695 29.8047 30.4844C30.125 30.1953 30.4141 29.8789 30.668 29.5352C30.918 29.1953 31.1211 28.8203 31.2695 28.4102C31.418 28.0039 31.4922 27.5508 31.4922 27.0469C31.4922 26.6367 31.4336 26.207 31.3047 25.7578C31.1758 25.3086 30.9609 24.8906 30.6562 24.5039C30.3555 24.1211 29.9531 23.8047 29.4609 23.5508C28.9688 23.3008 28.3516 23.1719 27.6211 23.1719ZM17.4258 23.4258C17.3555 23.8086 17.2109 24.1328 16.9844 24.3984C16.7617 24.6641 16.4922 24.8789 16.1758 25.0469C15.8633 25.2148 15.5078 25.3359 15.1172 25.4062C14.7266 25.4766 14.3242 25.5156 13.9102 25.5156V27.1367H16.875V36.0273H19.0273V23.4258H17.4258Z" fill="#3455A5"/>
</svg>
