<svg width="46" height="41" viewBox="0 0 46 41" fill="none" xmlns="http://www.w3.org/2000/svg">
<path d="M0 0V2H42V0H0ZM0 15V17H42V15H0ZM35.0938 19.9609C34.6953 19.9609 34.293 20.2617 34.0938 20.4609L31.7031 26.75L25.0156 27.1406C24.625 27.1406 24.2227 27.4414 24.125 27.8438C24.0234 28.2422 24.125 28.7422 24.5234 28.9414L29.6055 33.1289L27.9102 39.6094C27.8125 40.0117 28.0117 40.5117 28.3125 40.7109C28.5117 40.8125 28.7109 40.9102 28.9023 40.9102C29.1016 40.9102 29.3047 40.8125 29.5039 40.7109L35.0938 37.1211L40.6836 40.8125C40.9727 41.1094 41.4727 41.0117 41.7734 40.8125C42.1719 40.5117 42.2734 40.1094 42.1719 39.7109L40.4844 33.2305L45.6602 29.043C45.9609 28.7422 46.0625 28.3398 45.9648 27.9414C45.8633 27.543 45.4609 27.2383 45.0625 27.2383L38.3828 26.8516L35.9922 20.5625C35.8906 20.2617 35.4922 19.9609 35.0938 19.9609ZM35.0938 23.75L36.6914 28.2383C36.8906 28.5391 37.1836 28.8438 37.582 28.8438L42.3711 29.1406L38.6836 32.1289C38.3828 32.332 38.2812 32.7305 38.3828 33.1289L39.582 37.7188L35.5938 35.1289C35.4922 35.0312 35.293 34.9336 35.0938 34.9336C34.8906 34.9336 34.6914 35.0312 34.4922 35.0312L30.5 37.6211L31.7031 33.0312C31.8008 32.7305 31.7031 32.2305 31.4023 32.0312L27.7148 29.043L32.5 28.8438C32.8906 28.7422 33.1914 28.5391 33.3906 28.1406L35.0938 23.75ZM0 30V32H24.6445L22.8906 30.5781C22.6758 30.4062 22.4883 30.2148 22.332 30H0Z" fill="#3455A5"/>
</svg>
